<svg width="141" height="155" viewBox="0 0 141 155" fill="none" xmlns="http://www.w3.org/2000/svg">
<path d="M70.4147 15.2083C65.3222 16.8688 64.3531 17.0668 58.3654 20.0528C43.4476 27.4921 27.8974 36.0889 18.9062 48.5707C15.6251 53.1257 13.2289 58.0214 17.1186 63.1291C21.1089 68.369 31.4793 67.5277 37.2956 67.1015C56.604 65.6867 75.0703 60.7315 94.0183 58.0525C101.014 57.0634 108.344 56.1681 115.582 56.359C118.436 56.4343 121.108 56.7877 123.017 58.7375C131.973 67.8865 110.645 79.4211 104.277 83.606C85.1811 96.1548 64.5793 107.366 46.4576 120.831C39.0728 126.318 33.4936 131.87 30.31 139.543" stroke="#A6B1E1" stroke-width="30" stroke-linecap="round"/>
</svg>
